<svg xmlns="http://www.w3.org/2000/svg" viewBox="0 0 64 64">
  <rect width="64" height="64" rx="16" fill="#2a1430"/>
  <circle cx="23" cy="20" r="6" fill="#ffcee8"/>
  <circle cx="41" cy="20" r="6" fill="#ffcee8"/>
  <circle cx="17" cy="31" r="5.5" fill="#ffcee8"/>
  <circle cx="47" cy="31" r="5.5" fill="#ffcee8"/>
  <path d="M32 46c10 0 18-5 18-15 0-8-6-14-12-14-3 0-4.5 1.2-6 3-1.5-1.8-3-3-6-3-6 0-12 6-12 14 0 10 8 15 18 15z" fill="#fff2fa" stroke="#ffb2bc" stroke-width="2"/>
  <path d="M32 29c2.5-3.5 9-1.5 9 2.5 0 4.5-4.5 7.5-9 11-4.5-3.5-9-6.5-9-11 0-4 6.5-6 9-2.5z" fill="#ff7aa2"/>
</svg>
