<svg xmlns="http://www.w3.org/2000/svg" viewBox="0 0 512 512">
  <defs>
    <linearGradient id="paltuBg" x1="0%" y1="0%" x2="100%" y2="100%">
      <stop offset="0%" stop-color="#3a1d43"/>
      <stop offset="100%" stop-color="#140d1d"/>
    </linearGradient>
    <linearGradient id="paltuGlow" x1="0%" y1="0%" x2="100%" y2="100%">
      <stop offset="0%" stop-color="#ffd2f4"/>
      <stop offset="100%" stop-color="#ff9e7a"/>
    </linearGradient>
  </defs>
  <rect width="512" height="512" rx="120" fill="url(#paltuBg)"/>
  <circle cx="184" cy="182" r="42" fill="#ffcee8"/>
  <circle cx="328" cy="182" r="42" fill="#ffcee8"/>
  <circle cx="142" cy="266" r="38" fill="#ffcee8"/>
  <circle cx="370" cy="266" r="38" fill="#ffcee8"/>
  <path d="M256 366c70 0 116-36 116-98 0-52-38-84-78-84-18 0-30 7-38 18-8-11-20-18-38-18-40 0-78 32-78 84 0 62 46 98 116 98z" fill="#fff2fa" stroke="url(#paltuGlow)" stroke-width="16"/>
  <path d="M256 254c18-22 56-10 56 18 0 26-25 44-56 66-31-22-56-40-56-66 0-28 38-40 56-18z" fill="#ff7aa2"/>
</svg>
